<svg width="209" height="70" viewBox="0 0 209 70" fill="none" xmlns="http://www.w3.org/2000/svg">
<rect width="12" height="70" transform="matrix(-1 0 0 1 12 0)" fill="#008044"></rect>
<rect x="12" width="12" height="70" fill="#FFCB35"></rect>
<path fill-rule="evenodd" clip-rule="evenodd" d="M73.5173 36.862C73.5955 36.254 73.6541 35.646 73.6541 35C73.6541 34.354 73.5955 33.746 73.5173 33.138L77.6388 30.003C78.0099 29.718 78.1076 29.205 77.8732 28.787L73.9666 22.213C73.7322 21.795 73.2048 21.643 72.7751 21.795L67.9114 23.695C66.8957 22.935 65.8018 22.308 64.6103 21.833L63.868 16.798C63.8094 16.342 63.3992 16 62.9109 16H55.0977C54.6094 16 54.1992 16.342 54.1406 16.798L53.3983 21.833C52.2068 22.308 51.113 22.954 50.0973 23.695L45.2335 21.795C44.7843 21.624 44.2764 21.795 44.042 22.213L40.1354 28.787C39.8815 29.205 39.9987 29.718 40.3698 30.003L44.4913 33.138C44.4132 33.746 44.3546 34.373 44.3546 35C44.3546 35.627 44.4132 36.254 44.4913 36.862L40.3698 39.997C39.9987 40.282 39.901 40.795 40.1354 41.213L44.042 47.787C44.2764 48.205 44.8038 48.357 45.2335 48.205L46.1699 47.8392L51.0914 25.1996H62.8851L61.6424 30.3857H59.9268V30.3884C59.8514 30.3872 59.7739 30.3866 59.6942 30.3866H57.417L56.0434 36.6322H58.2845C58.409 36.6322 58.5289 36.631 58.6443 36.6286H60.1465L58.9027 41.8192H54.9229L53.4447 48.4815L54.1406 53.202C54.1992 53.658 54.6094 54 55.0977 54H62.9109C63.3992 54 63.8094 53.658 63.868 53.202L64.6103 48.167C65.8018 47.692 66.8957 47.046 67.9114 46.305L72.7751 48.205C73.2243 48.376 73.7322 48.205 73.9666 47.787L77.8732 41.213C78.1076 40.795 78.0099 40.282 77.6388 39.997L73.5173 36.862ZM64.3209 41.2546C63.3196 41.6022 62.0305 41.7892 60.4537 41.8159L64.4232 25.2501C65.5181 25.329 66.4118 25.5004 67.1042 25.7642C68.0922 26.117 68.791 26.6581 69.2007 27.3873C69.6104 28.093 69.8152 28.9869 69.8152 30.069C69.8152 30.6101 69.767 31.1982 69.6706 31.8333C69.5742 32.4449 69.4537 33.1154 69.3091 33.8446C69.02 35.0208 68.6946 36.1029 68.3332 37.0909C67.9958 38.0789 67.5139 38.9257 66.8873 39.6314C66.2608 40.3372 65.4053 40.8782 64.3209 41.2546Z" fill="#FFFFFF"></path>
<path d="M86 42.1125V24.4148H94.2827C95.3837 24.4148 96.2762 24.552 96.9601 24.8264C97.6441 25.0836 98.1696 25.4695 98.5366 25.9839C98.9036 26.4812 99.1538 27.0986 99.2873 27.836C99.4208 28.5734 99.4875 29.4223 99.4875 30.3826C99.4875 31.2572 99.4208 32.0632 99.2873 32.8006C99.1705 33.5209 98.9286 34.1468 98.5616 34.6785C98.2113 35.2101 97.6858 35.6216 96.9852 35.9132C96.2845 36.2047 95.3587 36.3505 94.2076 36.3505H90.354V42.1125H86ZM90.354 32.955H92.531C93.1316 32.955 93.5987 32.9207 93.9323 32.8521C94.2827 32.7835 94.5412 32.6634 94.7081 32.492C94.8749 32.3033 94.9833 32.0461 95.0334 31.7203C95.0834 31.3773 95.1084 30.9314 95.1084 30.3826C95.1084 29.8339 95.0834 29.388 95.0334 29.045C95 28.702 94.8999 28.4448 94.7331 28.2733C94.5663 28.0847 94.316 27.9646 93.9824 27.9132C93.6487 27.8446 93.19 27.8103 92.6061 27.8103H90.354V32.955Z" fill="#FFFFFF"></path>
<path d="M107.059 42.3183C105.858 42.3183 104.865 42.2412 104.081 42.0868C103.297 41.9325 102.672 41.6924 102.204 41.3666C101.754 41.0236 101.412 40.5863 101.178 40.0547C100.962 39.523 100.82 38.8885 100.753 38.1511C100.703 37.4137 100.678 36.5563 100.678 35.5788C100.678 34.3955 100.728 33.3751 100.828 32.5177C100.945 31.6602 101.195 30.9571 101.579 30.4084C101.963 29.8596 102.555 29.4566 103.356 29.1994C104.173 28.925 105.274 28.7878 106.659 28.7878C107.776 28.7878 108.685 28.8735 109.386 29.045C110.087 29.1994 110.637 29.448 111.038 29.791C111.455 30.1168 111.747 30.5456 111.913 31.0772C112.097 31.6088 112.214 32.2519 112.264 33.0064C112.314 33.7438 112.339 34.6013 112.339 35.5788V36.582H104.657C104.657 37.1651 104.682 37.6367 104.732 37.9968C104.782 38.3398 104.915 38.597 105.132 38.7685C105.349 38.94 105.683 39.06 106.133 39.1286C106.583 39.1801 107.209 39.2058 108.01 39.2058C108.327 39.2058 108.702 39.1972 109.136 39.1801C109.57 39.1629 110.02 39.1372 110.487 39.1029C110.971 39.0686 111.421 39.0343 111.838 39V41.881C111.471 41.9668 111.021 42.0439 110.487 42.1125C109.97 42.1811 109.411 42.2326 108.811 42.2669C108.21 42.3012 107.626 42.3183 107.059 42.3183ZM108.56 34.8585V34.4469C108.56 33.8296 108.527 33.3408 108.46 32.9807C108.41 32.6206 108.31 32.3548 108.16 32.1833C108.027 31.9946 107.835 31.8746 107.584 31.8232C107.334 31.7717 107.017 31.746 106.634 31.746C106.2 31.746 105.849 31.7803 105.583 31.8489C105.332 31.9003 105.14 32.0204 105.007 32.209C104.874 32.3976 104.782 32.672 104.732 33.0322C104.682 33.3923 104.657 33.8639 104.657 34.4469H108.986L108.56 34.8585Z" fill="#FFFFFF"></path>
<path d="M119.411 42.3183C118.344 42.3183 117.468 42.224 116.784 42.0354C116.1 41.8296 115.558 41.5466 115.157 41.1865C114.757 40.8092 114.465 40.3462 114.282 39.7974C114.098 39.2487 113.981 38.6227 113.931 37.9196C113.881 37.1994 113.856 36.4105 113.856 35.5531C113.856 34.7128 113.881 33.941 113.931 33.2379C113.981 32.5348 114.106 31.9089 114.307 31.3601C114.507 30.7942 114.799 30.3226 115.182 29.9453C115.583 29.5681 116.117 29.2851 116.784 29.0965C117.468 28.8907 118.335 28.7878 119.386 28.7878C120.054 28.7878 120.721 28.8221 121.388 28.8907C122.072 28.9593 122.681 29.0622 123.215 29.1994V32.1061C122.881 32.0547 122.448 32.0118 121.914 31.9775C121.397 31.9432 120.913 31.926 120.462 31.926C119.878 31.926 119.42 31.9775 119.086 32.0804C118.752 32.1661 118.502 32.3376 118.335 32.5949C118.169 32.8349 118.052 33.1951 117.985 33.6752C117.935 34.1554 117.91 34.7813 117.91 35.5531C117.91 36.3248 117.935 36.9593 117.985 37.4566C118.052 37.9368 118.169 38.3055 118.335 38.5627C118.502 38.8028 118.761 38.9657 119.111 39.0514C119.461 39.1372 119.92 39.1801 120.487 39.1801C120.888 39.1801 121.338 39.1629 121.839 39.1286C122.356 39.0943 122.848 39.0514 123.315 39V41.9068C122.764 42.0268 122.139 42.1211 121.438 42.1897C120.738 42.2755 120.062 42.3183 119.411 42.3183ZM116.409 47V46.8714L118.41 41.6495H121.013V41.7781L120.062 47H116.409Z" fill="#FFFFFF"></path>
<path d="M128.217 42.3183C127.416 42.3183 126.74 42.1897 126.19 41.9325C125.639 41.6752 125.222 41.2551 124.939 40.672C124.672 40.089 124.538 39.3258 124.538 38.3826C124.538 37.388 124.647 36.5991 124.864 36.0161C125.097 35.4159 125.506 34.9871 126.09 34.7299C126.674 34.4727 127.499 34.3441 128.567 34.3441C128.717 34.3441 128.926 34.3526 129.193 34.3698C129.476 34.3698 129.793 34.3783 130.144 34.3955C130.494 34.3955 130.844 34.4041 131.195 34.4212C131.545 34.4212 131.862 34.4298 132.145 34.4469V33.9582C132.145 33.4609 132.104 33.075 132.02 32.8006C131.954 32.5263 131.812 32.329 131.595 32.209C131.395 32.0718 131.086 31.9946 130.669 31.9775C130.252 31.9432 129.702 31.926 129.018 31.926C128.634 31.926 128.208 31.9346 127.741 31.9518C127.291 31.9689 126.841 31.9946 126.39 32.0289C125.956 32.0461 125.589 32.0718 125.289 32.1061V29.1994C125.973 29.0793 126.74 28.985 127.591 28.9164C128.459 28.8307 129.368 28.7878 130.319 28.7878C131.386 28.7878 132.271 28.8564 132.971 28.9936C133.689 29.1308 134.264 29.3451 134.698 29.6367C135.132 29.911 135.448 30.2626 135.649 30.6913C135.866 31.12 136.007 31.6259 136.074 32.209C136.141 32.7921 136.174 33.4523 136.174 34.1897V42.1125H132.321L132.221 40.5691H132.02C131.703 41.0836 131.336 41.4695 130.919 41.7267C130.502 41.9839 130.06 42.1468 129.593 42.2154C129.126 42.284 128.667 42.3183 128.217 42.3183ZM130.119 39.3859C130.419 39.3859 130.677 39.3687 130.894 39.3344C131.128 39.283 131.32 39.2058 131.47 39.1029C131.637 38.9828 131.77 38.8371 131.87 38.6656C131.954 38.477 132.02 38.2454 132.07 37.9711C132.12 37.6967 132.145 37.3708 132.145 36.9936V36.5048H129.818C129.401 36.5048 129.084 36.5391 128.867 36.6077C128.651 36.6592 128.5 36.7964 128.417 37.0193C128.35 37.2251 128.317 37.5509 128.317 37.9968C128.317 38.3741 128.359 38.6656 128.442 38.8714C128.525 39.0772 128.692 39.2144 128.942 39.283C129.209 39.3516 129.601 39.3859 130.119 39.3859Z" fill="#FFFFFF"></path>
<path d="M139.21 42.1125L142.888 24.4148H153.798L153.398 26.2669H144.665L143.314 32.6977H151.121L150.72 34.5498H142.938L141.362 42.1125H139.21Z" fill="#C5CEE0"></path>
<path d="M156.906 42.3183C155.905 42.3183 155.096 42.224 154.479 42.0354C153.862 41.8296 153.403 41.4866 153.103 41.0064C152.819 40.5091 152.677 39.8231 152.677 38.9486C152.677 38.5027 152.719 37.9968 152.802 37.4309C152.886 36.8478 153.002 36.1961 153.153 35.4759C153.419 34.1383 153.703 33.0407 154.003 32.1833C154.304 31.3087 154.671 30.6313 155.104 30.1511C155.538 29.6538 156.064 29.3023 156.681 29.0965C157.315 28.8907 158.082 28.7878 158.983 28.7878C159.75 28.7878 160.418 28.8478 160.985 28.9678C161.569 29.0707 162.044 29.268 162.411 29.5595C162.795 29.8339 163.053 30.2197 163.187 30.717H163.337L163.862 28.9936H165.714L163.012 42.1125H161.16L161.46 40.1833H161.31C160.993 40.7835 160.609 41.2465 160.159 41.5723C159.725 41.881 159.233 42.0782 158.683 42.164C158.149 42.2669 157.557 42.3183 156.906 42.3183ZM157.732 40.5691C158.382 40.5691 158.916 40.5091 159.333 40.3891C159.767 40.269 160.134 40.089 160.434 39.8489C160.735 39.6088 160.993 39.3001 161.21 38.9228C161.36 38.6656 161.51 38.3312 161.66 37.9196C161.811 37.508 161.952 37.0622 162.086 36.582C162.219 36.1018 162.336 35.6302 162.436 35.1672C162.536 34.687 162.611 34.2497 162.661 33.8553C162.711 33.4437 162.736 33.1093 162.736 32.8521C162.736 32.0289 162.503 31.4459 162.036 31.1029C161.585 30.7428 160.81 30.5627 159.709 30.5627C158.958 30.5627 158.332 30.6227 157.832 30.7428C157.348 30.8457 156.948 31.0686 156.631 31.4116C156.314 31.7374 156.047 32.2347 155.83 32.9035C155.613 33.5552 155.388 34.4384 155.154 35.5531C155.021 36.2219 154.913 36.8135 154.829 37.328C154.762 37.8253 154.729 38.254 154.729 38.6141C154.729 39.1629 154.821 39.5831 155.004 39.8746C155.204 40.149 155.53 40.3376 155.98 40.4405C156.431 40.5263 157.014 40.5691 157.732 40.5691ZM158.282 26.8328L158.307 26.7042L161.635 23.2058H163.913L163.888 23.3344L159.859 26.8328H158.282Z" fill="#C5CEE0"></path>
<path d="M171.269 42.3183C170.068 42.3183 169.125 42.1983 168.441 41.9582C167.757 41.7181 167.274 41.3494 166.99 40.8521C166.706 40.3376 166.565 39.6945 166.565 38.9228C166.565 38.5627 166.606 38.0654 166.69 37.4309C166.773 36.7964 166.898 36.1018 167.065 35.3473C167.299 34.164 167.566 33.1522 167.866 32.3119C168.166 31.4716 168.533 30.7942 168.967 30.2797C169.401 29.7653 169.968 29.388 170.668 29.1479C171.369 28.9078 172.245 28.7878 173.296 28.7878C173.963 28.7878 174.647 28.8221 175.348 28.8907C176.048 28.9421 176.641 29.0193 177.124 29.1222L176.774 30.7685C176.39 30.6999 175.915 30.6399 175.348 30.5884C174.797 30.5198 174.288 30.4855 173.821 30.4855C173.021 30.4855 172.362 30.5627 171.844 30.717C171.327 30.8542 170.902 31.1029 170.568 31.463C170.235 31.8232 169.959 32.3376 169.743 33.0064C169.526 33.6581 169.309 34.507 169.092 35.5531C168.958 36.2047 168.85 36.7792 168.767 37.2765C168.683 37.7738 168.642 38.2026 168.642 38.5627C168.642 39.1115 168.742 39.5402 168.942 39.8489C169.159 40.1404 169.492 40.3462 169.943 40.4662C170.41 40.5691 171.019 40.6206 171.769 40.6206C172.253 40.6206 172.787 40.5949 173.371 40.5434C173.971 40.4748 174.489 40.3976 174.922 40.3119L174.572 41.9582C174.155 42.0611 173.638 42.1468 173.021 42.2154C172.42 42.284 171.836 42.3183 171.269 42.3183Z" fill="#C5CEE0"></path>
<path d="M180.746 25.2379L181.222 23H183.399L182.923 25.2379H180.746ZM177.343 42.1125L180.046 28.9936H182.098L179.395 42.1125H177.343Z" fill="#C5CEE0"></path>
<path d="M183.019 42.1125L186.948 23H189L185.071 42.1125H183.019Z" fill="#C5CEE0"></path>
</svg>