<svg width="48" height="48" viewBox="0 0 48 48" fill="none" xmlns="http://www.w3.org/2000/svg" role="img" aria-label="PeçaFácil">
  <path d="M 45.76 20.79 L 45.76 27.21 L 40.11 27.55 L 38.63 31.63 L 42.74 35.53 L 38.61 40.45 L 34.06 37.08 L 30.30 39.25 L 30.94 44.88 L 24.61 45.99 L 23.30 40.49 L 19.02 39.73 L 15.90 44.46 L 10.33 41.24 L 12.87 36.18 L 10.07 32.85 L 4.65 34.46 L 2.45 28.42 L 7.64 26.17 L 7.64 21.83 L 2.45 19.58 L 4.65 13.54 L 10.07 15.15 L 12.87 11.82 L 10.33 6.76 L 15.90 3.54 L 19.02 8.27 L 23.30 7.51 L 24.61 2.01 L 30.94 3.12 L 30.30 8.75 L 34.06 10.92 L 38.61 7.55 L 42.74 12.47 L 38.63 16.37 L 40.11 20.45 Z" fill="#212E50"></path>
  <circle cx="24" cy="24" r="8.5" fill="#FFFFFF"></circle>
  <circle cx="24" cy="24" r="4.6" fill="#3B5391"></circle>
</svg>