<svg width="220" height="48" viewBox="0 0 220 48" fill="none" xmlns="http://www.w3.org/2000/svg" role="img" aria-label="PeçaFácil">
  <path d="M 37.81 21.37 L 37.81 26.63 L 33.18 26.91 L 31.97 30.25 L 35.33 33.43 L 31.95 37.46 L 28.23 34.70 L 25.15 36.48 L 25.68 41.08 L 20.50 41.99 L 19.43 37.49 L 15.93 36.87 L 13.37 40.74 L 8.82 38.11 L 10.89 33.96 L 8.61 31.24 L 4.17 32.56 L 2.37 27.62 L 6.62 25.78 L 6.62 22.22 L 2.37 20.38 L 4.17 15.44 L 8.61 16.76 L 10.89 14.04 L 8.82 9.89 L 13.37 7.26 L 15.93 11.13 L 19.43 10.51 L 20.50 6.01 L 25.68 6.92 L 25.15 11.52 L 28.23 13.30 L 31.95 10.54 L 35.33 14.57 L 31.97 17.75 L 33.18 21.09 Z" fill="#212E50"></path>
  <circle cx="20" cy="24" r="7" fill="#FFFFFF"></circle>
  <circle cx="20" cy="24" r="3.8" fill="#3B5391"></circle>
  <text x="46" y="31" font-family="Inter, sans-serif" font-size="23" font-weight="800" letter-spacing="-0.5">
    <tspan fill="#212E50">Peça</tspan><tspan fill="#3B5391">Fácil</tspan>
  </text>
</svg>