<svg width="149" height="38" viewBox="0 0 149 38" fill="none" xmlns="http://www.w3.org/2000/svg">
<path fill-rule="evenodd" clip-rule="evenodd" d="M33.5173 20.862C33.5955 20.254 33.6541 19.646 33.6541 19C33.6541 18.354 33.5955 17.746 33.5173 17.138L37.6388 14.003C38.0099 13.718 38.1076 13.205 37.8732 12.787L33.9666 6.213C33.7322 5.795 33.2048 5.643 32.7751 5.795L27.9114 7.695C26.8957 6.935 25.8018 6.308 24.6103 5.833L23.868 0.798C23.8094 0.342 23.3992 0 22.9109 0H15.0977C14.6094 0 14.1992 0.342 14.1406 0.798L13.3983 5.833C12.2068 6.308 11.113 6.954 10.0973 7.695L5.23354 5.795C4.78428 5.624 4.27642 5.795 4.04203 6.213L0.135425 12.787C-0.118504 13.205 -0.0013054 13.718 0.369822 14.003L4.49129 17.138C4.41316 17.746 4.35456 18.373 4.35456 19C4.35456 19.627 4.41316 20.254 4.49129 20.862L0.369822 23.997C-0.0013054 24.282 -0.0989707 24.795 0.135425 25.213L4.04203 31.787C4.27642 32.205 4.80382 32.357 5.23354 32.205L6.16985 31.8392L11.0914 9.19959H22.8851L21.6424 14.3857H19.9268V14.3884C19.8514 14.3872 19.7739 14.3866 19.6942 14.3866H17.417L16.0434 20.6322H18.2845C18.409 20.6322 18.5289 20.631 18.6443 20.6286H20.1465L18.9027 25.8192H14.9229L13.4447 32.4815L14.1406 37.202C14.1992 37.658 14.6094 38 15.0977 38H22.9109C23.3992 38 23.8094 37.658 23.868 37.202L24.6103 32.167C25.8018 31.692 26.8957 31.046 27.9114 30.305L32.7751 32.205C33.2243 32.376 33.7322 32.205 33.9666 31.787L37.8732 25.213C38.1076 24.795 38.0099 24.282 37.6388 23.997L33.5173 20.862ZM24.3209 25.2546C23.3196 25.6022 22.0305 25.7892 20.4537 25.8159L24.4232 9.25011C25.5181 9.32902 26.4118 9.50037 27.1042 9.76416C28.0922 10.117 28.791 10.6581 29.2007 11.3873C29.6104 12.093 29.8152 12.9869 29.8152 14.069C29.8152 14.6101 29.767 15.1982 29.6706 15.8333C29.5742 16.4449 29.4537 17.1154 29.3091 17.8446C29.02 19.0208 28.6946 20.1029 28.3332 21.0909C27.9958 22.0789 27.5139 22.9257 26.8873 23.6314C26.2608 24.3372 25.4053 24.8782 24.3209 25.2546Z" fill="#212E50"></path>
<path d="M46 26.1125V8.41479H54.2827C55.3837 8.41479 56.2762 8.55198 56.9601 8.82637C57.6441 9.0836 58.1696 9.46945 58.5366 9.98392C58.9036 10.4812 59.1538 11.0986 59.2873 11.836C59.4208 12.5734 59.4875 13.4223 59.4875 14.3826C59.4875 15.2572 59.4208 16.0632 59.2873 16.8006C59.1705 17.5209 58.9286 18.1468 58.5616 18.6785C58.2113 19.2101 57.6858 19.6216 56.9852 19.9132C56.2845 20.2047 55.3587 20.3505 54.2076 20.3505H50.354V26.1125H46ZM50.354 16.955H52.531C53.1316 16.955 53.5987 16.9207 53.9323 16.8521C54.2827 16.7835 54.5412 16.6634 54.7081 16.492C54.8749 16.3033 54.9833 16.0461 55.0334 15.7203C55.0834 15.3773 55.1084 14.9314 55.1084 14.3826C55.1084 13.8339 55.0834 13.388 55.0334 13.045C55 12.702 54.8999 12.4448 54.7331 12.2733C54.5663 12.0847 54.316 11.9646 53.9824 11.9132C53.6487 11.8446 53.19 11.8103 52.6061 11.8103H50.354V16.955Z" fill="#212E50"></path>
<path d="M67.0589 26.3183C65.8578 26.3183 64.8652 26.2412 64.0812 26.0868C63.2971 25.9325 62.6715 25.6924 62.2044 25.3666C61.754 25.0236 61.412 24.5863 61.1785 24.0547C60.9616 23.523 60.8198 22.8885 60.7531 22.1511C60.7031 21.4137 60.678 20.5563 60.678 19.5788C60.678 18.3955 60.7281 17.3751 60.8282 16.5177C60.9449 15.6602 61.1952 14.9571 61.5789 14.4084C61.9626 13.8596 62.5548 13.4566 63.3555 13.1994C64.1729 12.925 65.274 12.7878 66.6586 12.7878C67.7763 12.7878 68.6854 12.8735 69.3861 13.045C70.0867 13.1994 70.6373 13.448 71.0376 13.791C71.4547 14.1168 71.7466 14.5456 71.9134 15.0772C72.0969 15.6088 72.2137 16.2519 72.2638 17.0064C72.3138 17.7438 72.3388 18.6013 72.3388 19.5788V20.582H64.6567C64.6567 21.1651 64.6817 21.6367 64.7318 21.9968C64.7818 22.3398 64.9153 22.597 65.1322 22.7685C65.349 22.94 65.6827 23.06 66.1331 23.1286C66.5835 23.1801 67.2091 23.2058 68.0098 23.2058C68.3268 23.2058 68.7021 23.1972 69.1359 23.1801C69.5696 23.1629 70.02 23.1372 70.4871 23.1029C70.9709 23.0686 71.4213 23.0343 71.8384 23V25.881C71.4714 25.9668 71.0209 26.0439 70.4871 26.1125C69.97 26.1811 69.4111 26.2326 68.8106 26.2669C68.21 26.3012 67.6261 26.3183 67.0589 26.3183ZM68.5603 18.8585V18.4469C68.5603 17.8296 68.527 17.3408 68.4602 16.9807C68.4102 16.6206 68.3101 16.3548 68.16 16.1833C68.0265 15.9946 67.8347 15.8746 67.5844 15.8232C67.3342 15.7717 67.0172 15.746 66.6335 15.746C66.1998 15.746 65.8495 15.7803 65.5826 15.8489C65.3323 15.9003 65.1405 16.0204 65.007 16.209C64.8736 16.3976 64.7818 16.672 64.7318 17.0322C64.6817 17.3923 64.6567 17.8639 64.6567 18.4469H68.9857L68.5603 18.8585Z" fill="#212E50"></path>
<path d="M79.4114 26.3183C78.3437 26.3183 77.4679 26.224 76.784 26.0354C76.1 25.8296 75.5578 25.5466 75.1574 25.1865C74.7571 24.8092 74.4651 24.3462 74.2816 23.7974C74.0981 23.2487 73.9814 22.6227 73.9313 21.9196C73.8813 21.1994 73.8562 20.4105 73.8562 19.5531C73.8562 18.7128 73.8813 17.941 73.9313 17.2379C73.9814 16.5348 74.1065 15.9089 74.3067 15.3601C74.5068 14.7942 74.7988 14.3226 75.1825 13.9453C75.5828 13.5681 76.1167 13.2851 76.784 13.0965C77.4679 12.8907 78.3354 12.7878 79.3864 12.7878C80.0536 12.7878 80.7209 12.8221 81.3882 12.8907C82.0722 12.9593 82.6811 13.0622 83.2149 13.1994V16.1061C82.8813 16.0547 82.4475 16.0118 81.9137 15.9775C81.3966 15.9432 80.9128 15.926 80.4624 15.926C79.8785 15.926 79.4197 15.9775 79.0861 16.0804C78.7524 16.1661 78.5022 16.3376 78.3354 16.5949C78.1686 16.8349 78.0518 17.1951 77.9851 17.6752C77.935 18.1554 77.91 18.7813 77.91 19.5531C77.91 20.3248 77.935 20.9593 77.9851 21.4566C78.0518 21.9368 78.1686 22.3055 78.3354 22.5627C78.5022 22.8028 78.7608 22.9657 79.1111 23.0514C79.4614 23.1372 79.9202 23.1801 80.4874 23.1801C80.8878 23.1801 81.3382 23.1629 81.8386 23.1286C82.3558 23.0943 82.8479 23.0514 83.315 23V25.9068C82.7645 26.0268 82.1389 26.1211 81.4383 26.1897C80.7376 26.2755 80.062 26.3183 79.4114 26.3183ZM76.4086 31V30.8714L78.4105 25.6495H81.0129V25.7781L80.062 31H76.4086Z" fill="#212E50"></path>
<path d="M88.2168 26.3183C87.4161 26.3183 86.7404 26.1897 86.1899 25.9325C85.6394 25.6752 85.2224 25.2551 84.9388 24.672C84.6719 24.089 84.5384 23.3258 84.5384 22.3826C84.5384 21.388 84.6468 20.5991 84.8637 20.0161C85.0972 19.4159 85.506 18.9871 86.0898 18.7299C86.6737 18.4727 87.4995 18.3441 88.5671 18.3441C88.7173 18.3441 88.9258 18.3526 89.1927 18.3698C89.4763 18.3698 89.7933 18.3783 90.1436 18.3955C90.4939 18.3955 90.8442 18.4041 91.1946 18.4212C91.5449 18.4212 91.8618 18.4298 92.1454 18.4469V17.9582C92.1454 17.4609 92.1037 17.075 92.0203 16.8006C91.9536 16.5263 91.8118 16.329 91.5949 16.209C91.3947 16.0718 91.0861 15.9946 90.6691 15.9775C90.252 15.9432 89.7015 15.926 89.0175 15.926C88.6339 15.926 88.2085 15.9346 87.7414 15.9518C87.2909 15.9689 86.8405 15.9946 86.3901 16.0289C85.9564 16.0461 85.5894 16.0718 85.2891 16.1061V13.1994C85.9731 13.0793 86.7404 12.985 87.5912 12.9164C88.4587 12.8307 89.3679 12.7878 90.3187 12.7878C91.3864 12.7878 92.2706 12.8564 92.9712 12.9936C93.6885 13.1308 94.2641 13.3451 94.6978 13.6367C95.1315 13.911 95.4485 14.2626 95.6487 14.6913C95.8655 15.12 96.0073 15.6259 96.0741 16.209C96.1408 16.7921 96.1742 17.4523 96.1742 18.1897V26.1125H92.3206L92.2205 24.5691H92.0203C91.7034 25.0836 91.3364 25.4695 90.9193 25.7267C90.5022 25.9839 90.0602 26.1468 89.5931 26.2154C89.126 26.284 88.6672 26.3183 88.2168 26.3183ZM90.1186 23.3859C90.4188 23.3859 90.6774 23.3687 90.8943 23.3344C91.1278 23.283 91.3197 23.2058 91.4698 23.1029C91.6366 22.9828 91.7701 22.8371 91.8702 22.6656C91.9536 22.477 92.0203 22.2454 92.0704 21.9711C92.1204 21.6967 92.1454 21.3708 92.1454 20.9936V20.5048H89.8183C89.4012 20.5048 89.0843 20.5391 88.8674 20.6077C88.6505 20.6592 88.5004 20.7964 88.417 21.0193C88.3503 21.2251 88.3169 21.5509 88.3169 21.9968C88.3169 22.3741 88.3586 22.6656 88.442 22.8714C88.5254 23.0772 88.6922 23.2144 88.9425 23.283C89.2094 23.3516 89.6014 23.3859 90.1186 23.3859Z" fill="#212E50"></path>
<path d="M99.2098 26.1125L102.888 8.41479H113.798L113.398 10.2669H104.665L103.314 16.6977H111.121L110.72 18.5498H102.938L101.362 26.1125H99.2098Z" fill="#3B5391"></path>
<path d="M116.906 26.3183C115.905 26.3183 115.096 26.224 114.479 26.0354C113.862 25.8296 113.403 25.4866 113.103 25.0064C112.819 24.5091 112.677 23.8231 112.677 22.9486C112.677 22.5027 112.719 21.9968 112.802 21.4309C112.886 20.8478 113.002 20.1961 113.153 19.4759C113.419 18.1383 113.703 17.0407 114.003 16.1833C114.304 15.3087 114.671 14.6313 115.104 14.1511C115.538 13.6538 116.064 13.3023 116.681 13.0965C117.315 12.8907 118.082 12.7878 118.983 12.7878C119.75 12.7878 120.418 12.8478 120.985 12.9678C121.569 13.0707 122.044 13.268 122.411 13.5595C122.795 13.8339 123.053 14.2197 123.187 14.717H123.337L123.862 12.9936H125.714L123.012 26.1125H121.16L121.46 24.1833H121.31C120.993 24.7835 120.609 25.2465 120.159 25.5723C119.725 25.881 119.233 26.0782 118.683 26.164C118.149 26.2669 117.557 26.3183 116.906 26.3183ZM117.732 24.5691C118.382 24.5691 118.916 24.5091 119.333 24.3891C119.767 24.269 120.134 24.089 120.434 23.8489C120.735 23.6088 120.993 23.3001 121.21 22.9228C121.36 22.6656 121.51 22.3312 121.66 21.9196C121.811 21.508 121.952 21.0622 122.086 20.582C122.219 20.1018 122.336 19.6302 122.436 19.1672C122.536 18.687 122.611 18.2497 122.661 17.8553C122.711 17.4437 122.736 17.1093 122.736 16.8521C122.736 16.0289 122.503 15.4459 122.036 15.1029C121.585 14.7428 120.81 14.5627 119.709 14.5627C118.958 14.5627 118.332 14.6227 117.832 14.7428C117.348 14.8457 116.948 15.0686 116.631 15.4116C116.314 15.7374 116.047 16.2347 115.83 16.9035C115.613 17.5552 115.388 18.4384 115.154 19.5531C115.021 20.2219 114.913 20.8135 114.829 21.328C114.762 21.8253 114.729 22.254 114.729 22.6141C114.729 23.1629 114.821 23.5831 115.004 23.8746C115.204 24.149 115.53 24.3376 115.98 24.4405C116.431 24.5263 117.014 24.5691 117.732 24.5691ZM118.282 10.8328L118.307 10.7042L121.635 7.20579H123.913L123.888 7.33441L119.859 10.8328H118.282Z" fill="#3B5391"></path>
<path d="M131.269 26.3183C130.068 26.3183 129.125 26.1983 128.441 25.9582C127.757 25.7181 127.274 25.3494 126.99 24.8521C126.706 24.3376 126.565 23.6945 126.565 22.9228C126.565 22.5627 126.606 22.0654 126.69 21.4309C126.773 20.7964 126.898 20.1018 127.065 19.3473C127.299 18.164 127.566 17.1522 127.866 16.3119C128.166 15.4716 128.533 14.7942 128.967 14.2797C129.401 13.7653 129.968 13.388 130.668 13.1479C131.369 12.9078 132.245 12.7878 133.296 12.7878C133.963 12.7878 134.647 12.8221 135.348 12.8907C136.048 12.9421 136.641 13.0193 137.124 13.1222L136.774 14.7685C136.39 14.6999 135.915 14.6399 135.348 14.5884C134.797 14.5198 134.288 14.4855 133.821 14.4855C133.021 14.4855 132.362 14.5627 131.844 14.717C131.327 14.8542 130.902 15.1029 130.568 15.463C130.235 15.8232 129.959 16.3376 129.743 17.0064C129.526 17.6581 129.309 18.507 129.092 19.5531C128.958 20.2047 128.85 20.7792 128.767 21.2765C128.683 21.7738 128.642 22.2026 128.642 22.5627C128.642 23.1115 128.742 23.5402 128.942 23.8489C129.159 24.1404 129.492 24.3462 129.943 24.4662C130.41 24.5691 131.019 24.6206 131.769 24.6206C132.253 24.6206 132.787 24.5949 133.371 24.5434C133.971 24.4748 134.489 24.3976 134.922 24.3119L134.572 25.9582C134.155 26.0611 133.638 26.1468 133.021 26.2154C132.42 26.284 131.836 26.3183 131.269 26.3183Z" fill="#3B5391"></path>
<path d="M140.746 9.23794L141.222 7H143.399L142.923 9.23794H140.746ZM137.343 26.1125L140.046 12.9936H142.098L139.395 26.1125H137.343Z" fill="#3B5391"></path>
<path d="M143.019 26.1125L146.948 7H149L145.071 26.1125H143.019Z" fill="#3B5391"></path>
</svg>